<svg width="1400" height="800" viewBox="0 0 1400 800" fill="none" xmlns="http://www.w3.org/2000/svg">
<rect width="1400" height="800" fill="#C4C4C4"/>
<rect x="125" y="215" width="320" height="320" fill="#285474"/>
<rect x="355" y="105" width="200" height="200" fill="#24A9C5" fill-opacity="0.9"/>
<rect x="15" y="445" width="200" height="200" fill="#24A9C5" fill-opacity="0.9"/>
<path d="M871.352 315H935.576V298.44H890.216V196.2H871.352V315ZM1009.25 317.304C1017.56 317.304 1025.33 315.72 1032.58 312.552C1039.83 309.384 1046.19 304.992 1051.66 299.376C1057.13 293.712 1061.4 287.16 1064.48 279.72C1067.6 272.232 1069.16 264.216 1069.16 255.672C1069.16 247.08 1067.6 239.064 1064.48 231.624C1061.4 224.184 1057.13 217.656 1051.66 212.04C1046.19 206.376 1039.83 201.96 1032.58 198.792C1025.33 195.624 1017.56 194.04 1009.25 194.04C1000.95 194.04 993.171 195.624 985.923 198.792C978.675 201.96 972.315 206.376 966.843 212.04C961.371 217.656 957.075 224.184 953.955 231.624C950.883 239.064 949.347 247.08 949.347 255.672C949.347 264.216 950.883 272.232 953.955 279.72C957.075 287.16 961.371 293.712 966.843 299.376C972.315 304.992 978.675 309.384 985.923 312.552C993.171 315.72 1000.95 317.304 1009.25 317.304ZM1009.25 299.16C1001.72 299.16 994.971 297.264 989.019 293.472C983.067 289.68 978.363 284.52 974.907 277.992C971.451 271.416 969.723 263.976 969.723 255.672C969.723 247.368 971.451 239.952 974.907 233.424C978.363 226.848 983.067 221.664 989.019 217.872C994.971 214.08 1001.72 212.184 1009.25 212.184C1016.84 212.184 1023.6 214.08 1029.56 217.872C1035.51 221.664 1040.21 226.848 1043.67 233.424C1047.12 239.952 1048.85 247.368 1048.85 255.672C1048.85 263.976 1047.12 271.416 1043.67 277.992C1040.21 284.52 1035.51 289.68 1029.56 293.472C1023.6 297.264 1016.84 299.16 1009.25 299.16ZM1095.79 315H1114.65V263.448L1165.56 315H1191.69L1131.72 253.944L1184.93 196.2H1161.74L1114.65 247.536V196.2H1095.79V315ZM1210.68 315H1229.54V196.2H1210.68V315Z" fill="#285474"/>
<path d="M697.528 519.664C703.387 519.664 708.552 518.676 713.024 516.7C717.531 514.689 721.049 511.795 723.58 508.016C726.145 504.203 727.428 499.609 727.428 494.236C727.428 489.14 726.284 484.997 723.996 481.808C721.743 478.584 718.64 475.88 714.688 473.696C710.736 471.477 706.229 469.363 701.168 467.352C698.603 466.347 696.228 465.359 694.044 464.388C691.895 463.383 690.179 462.152 688.896 460.696C687.613 459.205 686.972 457.247 686.972 454.82C686.972 451.7 688.133 448.961 690.456 446.604C692.779 444.212 696.072 443.016 700.336 443.016C703.976 443.016 707.356 443.813 710.476 445.408C713.596 446.968 716.127 448.771 718.068 450.816L723.996 440.468C722.367 438.769 720.287 437.175 717.756 435.684C715.26 434.193 712.487 432.98 709.436 432.044C706.42 431.108 703.3 430.64 700.076 430.64C694.841 430.64 690.248 431.784 686.296 434.072C682.344 436.36 679.259 439.359 677.04 443.068C674.856 446.777 673.764 450.781 673.764 455.08C673.764 459.032 674.665 462.395 676.468 465.168C678.271 467.907 680.559 470.212 683.332 472.084C686.14 473.921 689.017 475.464 691.964 476.712C696.089 478.411 699.712 480.023 702.832 481.548C705.952 483.039 708.379 484.789 710.112 486.8C711.845 488.776 712.712 491.359 712.712 494.548C712.712 498.673 711.291 501.793 708.448 503.908C705.605 505.988 702.087 507.028 697.892 507.028C693.94 507.028 690.421 506.283 687.336 504.792C684.251 503.267 681.616 501.533 679.432 499.592C677.248 497.651 675.515 496.021 674.232 494.704L667.056 505.728C667.957 506.768 669.275 508.068 671.008 509.628C672.741 511.153 674.873 512.696 677.404 514.256C679.969 515.781 682.916 517.064 686.244 518.104C689.607 519.144 693.368 519.664 697.528 519.664ZM783.86 519.664C789.858 519.664 795.474 518.52 800.708 516.232C805.943 513.944 810.536 510.772 814.488 506.716C818.44 502.625 821.526 497.893 823.744 492.52C825.998 487.112 827.124 481.323 827.124 475.152C827.124 468.947 825.998 463.157 823.744 457.784C821.526 452.411 818.44 447.696 814.488 443.64C810.536 439.549 805.943 436.36 800.708 434.072C795.474 431.784 789.858 430.64 783.86 430.64C777.863 430.64 772.247 431.784 767.012 434.072C761.778 436.36 757.184 439.549 753.232 443.64C749.28 447.696 746.178 452.411 743.924 457.784C741.706 463.157 740.596 468.947 740.596 475.152C740.596 481.323 741.706 487.112 743.924 492.52C746.178 497.893 749.28 502.625 753.232 506.716C757.184 510.772 761.778 513.944 767.012 516.232C772.247 518.52 777.863 519.664 783.86 519.664ZM783.86 506.56C778.418 506.56 773.547 505.191 769.248 502.452C764.95 499.713 761.552 495.987 759.056 491.272C756.56 486.523 755.312 481.149 755.312 475.152C755.312 469.155 756.56 463.799 759.056 459.084C761.552 454.335 764.95 450.591 769.248 447.852C773.547 445.113 778.418 443.744 783.86 443.744C789.338 443.744 794.226 445.113 798.524 447.852C802.823 450.591 806.22 454.335 808.716 459.084C811.212 463.799 812.46 469.155 812.46 475.152C812.46 481.149 811.212 486.523 808.716 491.272C806.22 495.987 802.823 499.713 798.524 502.452C794.226 505.191 789.338 506.56 783.86 506.56ZM846.36 518H892.744V506.04H859.984V432.2H846.36V518ZM938.83 519.664C959.907 519.664 970.446 508.935 970.446 487.476V432.2H956.822V483.784C956.822 491.584 955.366 497.287 952.454 500.892C949.577 504.497 945.035 506.3 938.83 506.3C932.625 506.3 928.066 504.497 925.154 500.892C922.277 497.287 920.838 491.584 920.838 483.784V432.2H907.266V487.476C907.266 508.935 917.787 519.664 938.83 519.664ZM1003.35 518H1016.93V444.316H1040.33V432.2H980.005V444.316H1003.35V518ZM1056.19 518H1069.81V432.2H1056.19V518ZM1132.22 519.664C1138.22 519.664 1143.83 518.52 1149.07 516.232C1154.3 513.944 1158.9 510.772 1162.85 506.716C1166.8 502.625 1169.88 497.893 1172.1 492.52C1174.36 487.112 1175.48 481.323 1175.48 475.152C1175.48 468.947 1174.36 463.157 1172.1 457.784C1169.88 452.411 1166.8 447.696 1162.85 443.64C1158.9 439.549 1154.3 436.36 1149.07 434.072C1143.83 431.784 1138.22 430.64 1132.22 430.64C1126.22 430.64 1120.61 431.784 1115.37 434.072C1110.14 436.36 1105.54 439.549 1101.59 443.64C1097.64 447.696 1094.54 452.411 1092.28 457.784C1090.06 463.157 1088.96 468.947 1088.96 475.152C1088.96 481.323 1090.06 487.112 1092.28 492.52C1094.54 497.893 1097.64 502.625 1101.59 506.716C1105.54 510.772 1110.14 513.944 1115.37 516.232C1120.61 518.52 1126.22 519.664 1132.22 519.664ZM1132.22 506.56C1126.78 506.56 1121.91 505.191 1117.61 502.452C1113.31 499.713 1109.91 495.987 1107.42 491.272C1104.92 486.523 1103.67 481.149 1103.67 475.152C1103.67 469.155 1104.92 463.799 1107.42 459.084C1109.91 454.335 1113.31 450.591 1117.61 447.852C1121.91 445.113 1126.78 443.744 1132.22 443.744C1137.7 443.744 1142.58 445.113 1146.88 447.852C1151.18 450.591 1154.58 454.335 1157.08 459.084C1159.57 463.799 1160.82 469.155 1160.82 475.152C1160.82 481.149 1159.57 486.523 1157.08 491.272C1154.58 495.987 1151.18 499.713 1146.88 502.452C1142.58 505.191 1137.7 506.56 1132.22 506.56ZM1194.72 518H1208.34V455.08L1248.59 518H1262.22V432.2H1248.59V495.172L1208.34 432.2H1194.72V518ZM1307.21 519.664C1313.07 519.664 1318.23 518.676 1322.7 516.7C1327.21 514.689 1330.73 511.795 1333.26 508.016C1335.83 504.203 1337.11 499.609 1337.11 494.236C1337.11 489.14 1335.96 484.997 1333.68 481.808C1331.42 478.584 1328.32 475.88 1324.37 473.696C1320.42 471.477 1315.91 469.363 1310.85 467.352C1308.28 466.347 1305.91 465.359 1303.72 464.388C1301.57 463.383 1299.86 462.152 1298.58 460.696C1297.29 459.205 1296.65 457.247 1296.65 454.82C1296.65 451.7 1297.81 448.961 1300.14 446.604C1302.46 444.212 1305.75 443.016 1310.02 443.016C1313.66 443.016 1317.04 443.813 1320.16 445.408C1323.28 446.968 1325.81 448.771 1327.75 450.816L1333.68 440.468C1332.05 438.769 1329.97 437.175 1327.44 435.684C1324.94 434.193 1322.17 432.98 1319.12 432.044C1316.1 431.108 1312.98 430.64 1309.76 430.64C1304.52 430.64 1299.93 431.784 1295.98 434.072C1292.02 436.36 1288.94 439.359 1286.72 443.068C1284.54 446.777 1283.44 450.781 1283.44 455.08C1283.44 459.032 1284.35 462.395 1286.15 465.168C1287.95 467.907 1290.24 470.212 1293.01 472.084C1295.82 473.921 1298.7 475.464 1301.64 476.712C1305.77 478.411 1309.39 480.023 1312.51 481.548C1315.63 483.039 1318.06 484.789 1319.79 486.8C1321.53 488.776 1322.39 491.359 1322.39 494.548C1322.39 498.673 1320.97 501.793 1318.13 503.908C1315.29 505.988 1311.77 507.028 1307.57 507.028C1303.62 507.028 1300.1 506.283 1297.02 504.792C1293.93 503.267 1291.3 501.533 1289.11 499.592C1286.93 497.651 1285.19 496.021 1283.91 494.704L1276.74 505.728C1277.64 506.768 1278.95 508.068 1280.69 509.628C1282.42 511.153 1284.55 512.696 1287.08 514.256C1289.65 515.781 1292.6 517.064 1295.92 518.104C1299.29 519.144 1303.05 519.664 1307.21 519.664Z" fill="#285474"/>
</svg>
